<?xml version="1.0" encoding="UTF-8" standalone="no"?>
<svg
   xmlns:dc="http://purl.org/dc/elements/1.1/"
   xmlns:cc="http://creativecommons.org/ns#"
   xmlns:rdf="http://www.w3.org/1999/02/22-rdf-syntax-ns#"
   xmlns:svg="http://www.w3.org/2000/svg"
   xmlns="http://www.w3.org/2000/svg"
   version="1.1"
   id="svg5873"
   viewBox="0 0 240 240"
   height="240"
   width="240">
  <defs
     id="defs5875" />
  <metadata
     id="metadata5878">
    <rdf:RDF>
      <cc:Work
         rdf:about="">
        <dc:format>image/svg+xml</dc:format>
        <dc:type
           rdf:resource="http://purl.org/dc/dcmitype/StillImage" />
        <dc:title></dc:title>
      </cc:Work>
    </rdf:RDF>
  </metadata>
  <g
     transform="translate(-268.29955,-369.77695)"
     id="layer1">
    <path
       id="path4252"
       d="m 388.29859,395.21935 a 94.557617,94.557617 0 0 0 -94.55664,94.5566 94.557617,94.557617 0 0 0 94.55664,94.5586 94.557617,94.557617 0 0 0 94.55856,-94.5586 94.557617,94.557617 0 0 0 -94.55855,-94.5566 z m 0,15.8828 a 78.674889,78.674889 0 0 1 47.11915,15.791 l -47.11915,46.4453 -47.27539,-46.3535 a 78.674889,78.674889 0 0 1 47.27539,-15.8828 z m -62.86524,31.5313 46.61329,47.1425 -46.37109,47.5118 a 78.674889,78.674889 0 0 1 -16.05078,-47.5118 78.674889,78.674889 0 0 1 15.80858,-47.1425 z m 126.00779,0.3554 a 78.674889,78.674889 0 0 1 15.5332,46.7871 78.674889,78.674889 0 0 1 -15.84179,47.1856 l -46.582,-47.1856 46.89059,-46.7871 z m -63.14255,63.2246 47.28715,46.3496 a 78.674889,78.674889 0 0 1 -47.28715,15.8887 78.674889,78.674889 0 0 1 -46.95703,-15.668 l 46.95703,-46.5703 z"
       style="display:inline;opacity:1;fill:#2e3436;fill-opacity:1;stroke:none;stroke-width:10;stroke-linecap:butt;stroke-linejoin:miter;stroke-miterlimit:4;stroke-dasharray:none;stroke-dashoffset:10;stroke-opacity:1" />
  </g>
</svg>
