<?xml version="1.0" encoding="UTF-8" standalone="no"?>
<svg
   xmlns:dc="http://purl.org/dc/elements/1.1/"
   xmlns:cc="http://creativecommons.org/ns#"
   xmlns:rdf="http://www.w3.org/1999/02/22-rdf-syntax-ns#"
   xmlns:svg="http://www.w3.org/2000/svg"
   xmlns="http://www.w3.org/2000/svg"
   version="1.1"
   id="svg7037"
   viewBox="0 0 240 240"
   height="240"
   width="240">
  <defs
     id="defs7039" />
  <metadata
     id="metadata7042">
    <rdf:RDF>
      <cc:Work
         rdf:about="">
        <dc:format>image/svg+xml</dc:format>
        <dc:type
           rdf:resource="http://purl.org/dc/dcmitype/StillImage" />
        <dc:title></dc:title>
      </cc:Work>
    </rdf:RDF>
  </metadata>
  <g
     transform="translate(0,-812.36216)"
     id="layer1">
    <path
       id="path4268"
       d="M 120,843.88561 A 88.476739,88.476739 0 0 0 31.52344,932.36221 88.476739,88.476739 0 0 0 120,1020.8387 88.476739,88.476739 0 0 0 208.47656,932.36221 88.476739,88.476739 0 0 0 120,843.88561 Z m 0,14.541 a 73.935021,73.935021 0 0 1 73.93555,73.9356 73.935021,73.935021 0 0 1 -56.81446,71.83589 c 20.57757,-29.61309 45.6083,-54.85359 33.53125,-115.89839 l -16.35742,-13.4786 c 13.39926,58.577 -20.79911,96.1417 -70.31836,122.0723 A 73.935021,73.935021 0 0 1 46.06641,932.36221 73.935021,73.935021 0 0 1 120,858.42661 Z"
       style="display:inline;opacity:1;fill:#8f5902;fill-opacity:1;stroke:none;stroke-width:10;stroke-linecap:butt;stroke-linejoin:miter;stroke-miterlimit:4;stroke-dasharray:none;stroke-dashoffset:10;stroke-opacity:1" />
  </g>
</svg>
