<svg xmlns="http://www.w3.org/2000/svg" viewBox="0 0 1381 1381">
  <path d="M659 1137.37c-54.58-4.82-99.3-16.22-147-37.5-65.9-29.37-125.68-77.33-170-136.37-17.3-23.07-30.45-44.84-44.08-73-57.1-117.94-57.1-259.06 0-377 22.14-45.73 46.34-80.32 81.06-115.85 21.8-22.3 38.17-36.3 62.43-53.33 59.25-41.6 124.34-66.34 200.1-76.02 20.13-2.57 79.87-2.57 100 0 54.67 7 100.84 20.85 147 44.14 59.05 29.78 112.27 74.48 152.5 128.06 77.47 103.24 105.12 237.12 75 363.16-11.6 48.5-32.16 96.13-59.54 137.84-29.14 44.4-68.85 85.6-111.96 116.2-52.52 37.3-111.3 62.08-175 73.8-24.46 4.5-38.3 5.65-72.5 5.96-18.43.17-35.53.13-38-.1zm125.08-83.8c61.5-17.06 115.06-47.92 160.32-92.4 56.55-55.55 92.07-123.26 105.03-200.17 7.5-44.53 5.7-96.46-4.93-141.42-16.38-69.3-54.1-133.7-106.8-182.42C854 359.83 740.6 326.48 628 346.12 504.4 367.7 399.3 454.27 353.2 572.5c-11.02 28.3-17.3 53.64-22.37 90.5-2.05 14.84-1.75 68.16.47 84 9.58 68.3 33.7 124.55 76.43 178.1 11.77 14.77 42.98 46.7 56.27 57.55 19.15 15.66 44.57 33.35 47.92 33.35 4.48 0 45.22-19.75 69.08-33.48 81.65-47 151.5-107.76 204.1-177.55 42.74-56.7 64.44-102.83 76.42-162.47 7.07-35.18 9.77-64.7 9.7-106-.04-40.8-3.77-83.62-9.8-112.75-.32-1.5-.15-2.75.37-2.75 1.6 0 23.45 14.33 35.9 23.54 14.5 10.73 26.15 22.43 34 34.15 12.33 18.45 21.95 57.57 25.4 103.3 1.66 22.15.62 71.2-2.05 96-3.9 36.36-9.9 70.17-17.12 96.5-23.25 84.8-75.35 175.15-151.97 263.52-16.3 18.82-16.44 18.98-15.25 18.98.53 0 6.55-1.55 13.38-3.44z"/>
</svg>
