<?xml version="1.0" encoding="UTF-8" standalone="no"?>
<svg
   xmlns:dc="http://purl.org/dc/elements/1.1/"
   xmlns:cc="http://creativecommons.org/ns#"
   xmlns:rdf="http://www.w3.org/1999/02/22-rdf-syntax-ns#"
   xmlns:svg="http://www.w3.org/2000/svg"
   xmlns="http://www.w3.org/2000/svg"
   version="1.1"
   id="svg15295"
   viewBox="0 0 240 240"
   height="240"
   width="240">
  <defs
     id="defs15297" />
  <metadata
     id="metadata15300">
    <rdf:RDF>
      <cc:Work
         rdf:about="">
        <dc:format>image/svg+xml</dc:format>
        <dc:type
           rdf:resource="http://purl.org/dc/dcmitype/StillImage" />
        <dc:title></dc:title>
      </cc:Work>
    </rdf:RDF>
  </metadata>
  <g
     transform="translate(0,-812.36216)"
     id="layer1">
    <path
       id="path4381"
       d="m 108.1563,836.99201 -19.2696,58.6895 -60.6347,0.1758 -7.0704,22.9824 48.7911,36.2383 -18.209,58.86709 19.2695,13.7872 48.7891,-36.06059 49.8515,36.06059 18.5625,-13.7872 -18.209,-59.04489 48.7911,-36.0605 -7.4258,-23.1582 -60.6328,0 -19.4453,-58.6895 -23.1582,0 z m 11.8437,10.252 20.3301,62.5801 65.0527,0.3535 -52.3262,39.0664 19.9766,63.64059 -53.3867,-39.06839 -24.3535,18.1836 c 29.0762,-25.1988 43.6989,-54.0749 52.6367,-74.9297 l -10.959,0 c -14.1982,21.9009 -33.9502,37.057 -54.3281,46.4844 l 4.6543,-13.957 -53.211,-39.5977 65.0547,0.1778 L 120,847.24401 Z"
       style="display:inline;fill:#729fcf;fill-opacity:1;fill-rule:evenodd;stroke:none;stroke-width:1px;stroke-linecap:butt;stroke-linejoin:miter;stroke-opacity:1" />
  </g>
</svg>
