<svg xmlns="http://www.w3.org/2000/svg" viewBox="0 0 1381 1381">
  <path d="M397 1136.4c-25.57-18.9-46.4-34.93-46.25-35.63.13-.7 21.15-65.83 46.7-144.73 25.57-78.9 46.13-143.7 45.7-144-12.12-8.3-240.1-181.76-239.83-182.5.2-.57 7.98-24.78 17.28-53.8l16.9-52.73 149.86-.25 149.86-.25 46.57-144.75L630.34 233h58.58l58.57.02 40.46 125.24 46.84 145 6.38 19.74h299.34l19.6 53.68 19.57 53.68-7.6 5.64c-119.73 89-235.77 175.35-236.35 175.9-.4.38 20.17 65.9 45.74 145.6 25.55 79.7 46.1 145.15 45.65 145.45-.45.3-22.53 15.62-49.06 34.05-26.54 18.43-48.55 33.37-48.92 33.2-.38-.16-48.6-35.48-107.15-78.5-58.56-43-112.45-82.56-119.77-87.9l-13.3-9.67-116.23 83.7c-63.93 46.06-119.16 85.8-122.73 88.34l-6.5 4.6-46.5-34.36zm502.45-196.16C872.8 855.44 851 785.38 851 784.58c0-.8 57.26-43.63 127.25-95.16 70-51.53 127.92-94.36 128.75-95.17 1.32-1.3-13.1-1.4-121.5-.86-67.65.33-139.43.88-159.5 1.22l-36.5.6-50-155.1C712 354.8 689.27 285 689 285c-.28 0-22.55 69.8-49.5 155.1l-49 155.12-36.5-.62c-20.07-.33-92.3-.9-160.5-1.23-110.45-.55-123.84-.46-122.5.9.82.8 58.65 43.44 128.5 94.7 69.85 51.27 127.73 93.95 128.63 94.86 1.5 1.52.86 4.17-8.73 35.64-5.7 18.7-10.38 34.34-10.4 34.76-.03 2.4 42.75-21.54 67.97-38.04 56-36.63 91.25-66.74 140.15-119.72 24.2-26.22 58.88-67.2 58.88-69.6 0-.5 11.28-.9 25.5-.9 14.03 0 25.5.17 25.5.37 0 .97-9.93 22.44-20.18 43.63-37.94 78.42-70.68 131.94-116.23 190-25.4 32.37-61.9 73.02-98.22 109.43l-28.88 28.93L610.45 963c25.82-19.45 54.17-40.9 63-47.67C682.28 908.56 690 903 690.62 903c.62 0 58.62 43.2 128.9 96.02 70.28 52.8 127.9 95.88 128.08 95.72.16-.17-21.5-69.7-48.15-154.5z"/>
</svg>
