<?xml version="1.0" encoding="UTF-8" standalone="no"?>
<svg
   xmlns:dc="http://purl.org/dc/elements/1.1/"
   xmlns:cc="http://creativecommons.org/ns#"
   xmlns:rdf="http://www.w3.org/1999/02/22-rdf-syntax-ns#"
   xmlns:svg="http://www.w3.org/2000/svg"
   xmlns="http://www.w3.org/2000/svg"
   version="1.1"
   id="svg15877"
   viewBox="0 0 240 240"
   height="240"
   width="240">
  <defs
     id="defs15879" />
  <metadata
     id="metadata15882">
    <rdf:RDF>
      <cc:Work
         rdf:about="">
        <dc:format>image/svg+xml</dc:format>
        <dc:type
           rdf:resource="http://purl.org/dc/dcmitype/StillImage" />
        <dc:title></dc:title>
      </cc:Work>
    </rdf:RDF>
  </metadata>
  <g
     transform="translate(0,-812.36216)"
     id="layer1">
    <path
       id="path4390"
       d="m 131.49023,835.93056 -24.39453,0.1757 -14.4961,46.3164 -12.90429,0.1778 -4.41992,13.2578 -47.90626,-0.3535 -7.24804,23.334 39.0664,28.6386 -3.88867,12.5508 10.07617,7.2481 -14.8496,46.84574 20.15429,14.4961 38.89063,-29.34574 10.60547,8.13084 9.72265,-7.42384 40.30468,28.81444 18.7383,-14.1425 -14.4941,-47.37504 10.2519,-7.6016 -4.0645,-12.0215 39.2442,-28.8144 -8.3086,-23.334 -47.90625,0 -4.24414,-12.7285 -12.37305,0.1777 -15.55664,-47.0234 z m -11.84375,10.4296 20.85937,63.6407 66.29106,0.3535 -53.91606,39.5976 20.32816,63.10944 -37.12308,-26.69334 c 5.83363,-23.0399 11.66774,-45.7276 13.78906,-69.1211 l -8.83984,0 c -7.3657,23.8059 -18.79716,49.0266 -37.47656,68.2363 l -37.12305,28.10744 9.54688,-30.58204 c 19.74006,-15.5563 47.25789,-43.134 58.68945,-68.9434 l -3.88867,-11.4902 c -10.48875,16.5581 -33.70635,34.3532 -55.33203,39.5976 l -42.60352,-31.996 66.29297,0 20.50586,-63.8165 z"
       style="display:inline;fill:#729fcf;fill-opacity:1;fill-rule:evenodd;stroke:none;stroke-width:1px;stroke-linecap:butt;stroke-linejoin:miter;stroke-opacity:1" />
  </g>
</svg>
