<svg xmlns="http://www.w3.org/2000/svg" viewBox="0 0 1381 1381">
  <path d="M398.5 1136.83c-25.3-18.65-46.14-34.3-46.3-34.78-.17-.47 14.75-47.6 33.15-104.7 18.4-57.12 34.8-108.1 36.44-113.27l2.98-9.42-25.33-20.33c-13.93-11.18-25.54-20.67-25.8-21.08-.25-.42 4-13.76 9.47-29.66 5.47-15.9 9.82-29.28 9.66-29.74-.15-.45-43.03-32.15-95.28-70.43-77.22-56.58-94.95-70-94.74-71.66.15-1.13 8.2-26.06 17.87-55.4l17.6-53.36 116.52-.25 116.52-.25 11.64-32 11.65-32 32-.26 32-.27L595 345.5 631.46 233h117.2l35.83 111.25c19.7 61.2 36.07 111.56 36.4 111.93.33.38 13.88 1 30.1 1.4l29.5.7 12.04 31.1 12.04 31.12 117.57.25 117.57.26 20.6 54.7c11.35 30.1 20.24 54.96 19.78 55.26-6.63 4.25-191.12 143.66-191.53 144.73-.32.8 2.58 13.74 6.43 28.72 3.85 14.98 7 27.67 7 28.2 0 .53-10.6 9.66-23.58 20.3-12.97 10.63-23.77 19.84-24 20.46-.24.62 16.42 52.4 37.03 115.08 20.6 62.67 37.37 114 37.26 114.08l-48.96 34.3-48.75 34.2-95.26-68.7c-52.38-37.77-96.6-69.7-98.24-70.93l-3-2.23-23.24 18.47-23.23 18.47-23.6-18.5-23.6-18.5-8.66 6.27-97.17 70.1c-48.67 35.1-88.95 64.15-89.5 64.56-.55.4-21.7-14.54-47-33.2zm45.48-51.25c65.2-42.73 144.64-112.6 192.23-169.08 13.93-16.52 43.05-55.22 50.8-67.5 36.8-58.27 70.18-128.43 100.86-212l4.96-13.5 21.97-.27 21.96-.27-.38 4.27C830.78 690 821.4 755.4 812.4 794.5c-1.38 6.05-4.02 17.98-5.85 26.5-5 23.3-20.48 83.8-29.73 116.23-4.5 15.8-8 28.9-7.75 29.08.24.2 13.03 9.14 28.43 19.87 15.4 10.74 55.36 38.72 88.8 62.18s60.97 42.65 61.17 42.65c.2 0-.76-3.7-2.15-8.25-6.04-19.83-29.83-95.56-45.48-144.75-33.82-106.3-48.84-154.3-48.77-155.9.03-.87 6-5.93 13.25-11.22 7.25-5.3 44.06-32.5 81.8-60.5 37.76-27.98 89.8-66.4 115.64-85.38 25.85-18.98 46.94-34.53 46.87-34.58-.07-.04-71.45.5-158.63 1.22-87.17.7-158.95 1.14-159.5.95-.55-.2-23.27-69.7-50.5-154.46-27.22-84.77-49.75-154.12-50.05-154.13-.3 0-22.56 69.55-49.45 154.56l-48.9 154.56-43.55-.6c-60.28-.84-231.16-2.52-256-2.52-17.62 0-20.27.2-19 1.4 1.07 1.04 166.1 122.34 206.46 151.77l5.03 3.66 19.48-8.25c40.5-17.13 83.72-41.14 111.5-61.94 37.85-28.34 85.2-76.5 120.65-122.7 1.45-1.9 2.85-3.22 3.1-2.94.9.97 23.75 56.9 23.75 58.1 0 3.58-33.3 60.3-49.55 84.4-39.84 59.1-65.57 89.76-124.94 148.9-30.14 30.05-70.1 67.14-98 91-8.25 7.05-15.35 13.8-15.78 14.96-.76 2.08-8.44 25.96-34.7 107.9-7 21.85-12.55 39.74-12.34 39.74.22 0 7.55-4.7 16.3-10.42z"/>
</svg>
