<svg xmlns="http://www.w3.org/2000/svg" viewBox="0 0 1381 1381">
  <path d="M398.08 1136.88c-24.93-18.54-45.76-34.16-46.3-34.7-.67-.67 10-35.08 31.76-102.34 18.03-55.74 33.58-104.17 34.56-107.62l1.8-6.3-29.7-22.08-29.92-22.26c-.1-.1 4.5-17 10.26-37.57 5.76-20.56 10.13-37.7 9.7-38.08-.56-.52-176-129.78-176.94-130.37-.17-.1 19-63.97 31.22-104l2.53-8.3 110.83-.75 110.84-.74 11.88-36.38L482.48 449h39.76c21.87 0 39.76-.23 39.76-.52 0-.28 14.87-47.42 33.05-104.75s33.5-105.7 34.08-107.48l1.03-3.25H747.8l4.2 13.25c2.3 7.3 17.78 55.77 34.38 107.75l30.2 94.5 39.1.26 39.1.26 12.36 36.74 12.37 36.74 110.6.25 110.6.26 19.07 52.75c10.5 29 19.24 53.3 19.4 53.95.2.65-40.4 32.1-90.17 69.87l-90.72 68.86c-.12.1 4.25 16.8 9.7 37.1 5.45 20.3 9.82 36.96 9.72 37.02-.1.06-13.14 10.8-28.95 23.9C971.13 881 960 890.9 960 891.97c0 .96 15.07 48.14 33.5 104.86 18.43 56.7 33.5 103.73 33.5 104.5 0 1.2-95.78 68.82-97.5 68.85-.36 0-40.43-29.3-89.05-65.1s-88.9-65.1-89.5-65.1c-.6 0-14.8 9.47-31.56 21.04l-30.47 21.05-2.7-1.9-30.6-21.6c-15.34-10.85-28.5-19.48-29.24-19.2-.75.3-42.24 29.93-92.2 65.86l-90.8 65.34-45.32-33.72zm543.45-49.63c-18.17-25.46-46.73-69.63-57.7-89.25-34.04-60.87-62.68-125.1-79.77-178.88-13.54-42.6-29.8-111.3-38-160.65C759.22 617.54 748 537.1 748 529.17c0-.86 5.8-1.17 22.28-1.17h22.3l3.82 13.75c9.86 35.4 29.05 90.38 43.94 125.9 25.16 59.98 55.98 113.08 94.12 162.1 2.67 3.44 5.13 6.24 5.45 6.23.33-.02 5.55-3.08 11.6-6.8 10.82-6.66 11-6.83 10.72-10.23-.16-1.9-1.67-7.05-3.37-11.45-2.7-6.98-21.24-59.72-27.14-77.22-1.14-3.42-1.9-6.4-1.64-6.6.43-.36 85.08-62.32 147.84-108.22l31.4-22.96-109.56-.25L890.2 592l-1-2.75c-7.2-20.1-21.7-59.47-26.9-73L855.68 499H743.12l-.56-4.25c-.3-2.34-1.48-14.82-2.6-27.75l-2.03-23.5-6.53-20.84c-3.6-11.46-14.12-46.1-23.38-77-17.44-58.17-18.75-62.27-19.57-61.45-.26.28-3.2 10.13-6.52 21.9-3.33 11.77-9.66 33.1-14.1 47.4-4.4 14.3-12.27 40.16-17.45 57.48l-9.4 31.47-2.53 24.53c-1.38 13.48-2.74 25.98-3.03 27.77l-.5 3.25H522.38l-14.92 46.5-14.9 46.5-38.54.14c-21.2.08-71.54.42-111.88.75l-73.34.6 89.6 65.4C409.23 695 448 723.95 448 724.8c0 .85-6.32 22.9-14.04 49-7.72 26.1-13.9 47.82-13.75 48.23.33.85 16.34 12.84 17.66 13.22 1.63.48 22.46-27.63 37.12-50.07 31.4-48.1 51.75-87.73 72.47-141.18 11.36-29.3 28.26-79.67 34.13-101.75l3.8-14.25h22.3c14.9 0 22.32.35 22.32 1.05 0 2.2-3.07 28.74-4 34.45-.52 3.3-1.65 11.18-2.5 17.5-11.3 83.1-32.16 177.25-52.85 238.5-13.1 38.8-19.47 55.37-34.2 89-9.43 21.5-36.84 76.42-47.93 96-15 26.47-43.84 73.65-50.43 82.47l-2.6 3.47 3.5-2.43c1.92-1.33 19.25-14.1 38.5-28.4 19.25-14.3 50.52-37.42 69.5-51.4 48.22-35.56 43.34-30.7 50.9-50.7 18.56-48.98 38.37-125.36 48.5-187 10.4-63.18 13.78-91.9 19.03-162 3.36-44.8 5.22-78.9 7.1-130.5l1.6-43.5 7.16-24.25c3.93-13.34 7.42-24.25 7.74-24.25.32 0 3.8 10.9 7.72 24.25l7.14 24.25.56 17.5 1.57 50c2.15 68.12 7.4 132.2 17.53 213.5 4.5 36.02 14.05 84.1 27.05 135.92 10.08 40.16 31.02 106.06 39.27 123.54 1.3 2.73 17.88 15.67 79.13 61.7 42.63 32.03 77.63 58.26 77.78 58.3.15.02-2.2-3.45-5.25-7.7z"/>
</svg>
