<?xml version="1.0" encoding="UTF-8" standalone="no"?>
<svg
   xmlns:dc="http://purl.org/dc/elements/1.1/"
   xmlns:cc="http://creativecommons.org/ns#"
   xmlns:rdf="http://www.w3.org/1999/02/22-rdf-syntax-ns#"
   xmlns:svg="http://www.w3.org/2000/svg"
   xmlns="http://www.w3.org/2000/svg"
   version="1.1"
   id="svg16459"
   viewBox="0 0 240 240"
   height="240"
   width="240">
  <defs
     id="defs16461" />
  <metadata
     id="metadata16464">
    <rdf:RDF>
      <cc:Work
         rdf:about="">
        <dc:format>image/svg+xml</dc:format>
        <dc:type
           rdf:resource="http://purl.org/dc/dcmitype/StillImage" />
        <dc:title></dc:title>
      </cc:Work>
    </rdf:RDF>
  </metadata>
  <g
     transform="translate(0,-812.36216)"
     id="layer1">
    <path
       id="path4396"
       d="m 107.9795,836.81431 -14.1426,43.8398 -16.0859,0.1778 -4.7735,14.8496 -44.9004,0 -7.0722,22.8047 36.416,26.8691 -4.9492,15.7324 12.7285,9.1934 -13.6114,42.95699 19.0918,14.6719 36.4161,-27.0469 13.4336,9.0156 12.1972,-9.1914 37.1231,27.2227 18.7382,-14.3184 -13.6113,-43.13469 12.375,-9.545 -4.7734,-15.5566 36.416,-26.6934 -7.7773,-23.3339 -44.5489,0.5293 -5.4804,-15.3789 -15.3789,0.1757 -14.3184,-43.8398 -23.5117,0 z m 11.4902,10.0762 10.9609,33.0566 0.3536,10.4297 23.1582,0 6.7168,19.4473 45.6074,0.3535 -36.416,27.0468 5.6582,20.3282 -4.42,2.4746 c -11.4315,-12.0797 -23.7466,-35.1188 -30.582,-62.2246 l -8.6621,-0.1778 c 4.9498,43.4871 18.2076,83.0865 40.3047,114.55279 l -33.0566,-24.04299 c -8.6031,-23.5702 -16.6771,-72.9497 -16.795,-111.0156 l -2.1211,-7.6016 -2.8281,7.0723 c -0.5303,41.1301 -6.7167,84.9115 -16.4394,111.7226 l -33.5879,24.21879 c 21.0953,-30.34669 36.7102,-72.00749 39.9511,-114.37499 l -8.1308,0 c -4.5962,21.7435 -17.8561,49.6734 -30.2305,62.5781 l -4.9492,-4.2422 6.3652,-18.7383 -36.7715,-27.7539 45.6094,-0.1757 6.8946,-19.2696 22.6269,-0.3535 0.5313,-10.4297 10.2519,-32.8808 z"
       style="display:inline;fill:#729fcf;fill-opacity:1;fill-rule:evenodd;stroke:none;stroke-width:1px;stroke-linecap:butt;stroke-linejoin:miter;stroke-opacity:1" />
  </g>
</svg>
