<svg xmlns="http://www.w3.org/2000/svg" viewBox="0 0 1381 1381">
  <path d="M467.12 826.9l-224.3-309.1 2.34-3.27c1.3-1.8 41.94-58 90.34-124.87l88-121.6 268.4.22 268.4.22 89.8 124c49.38 68.2 89.64 124.47 89.45 125.05-.3.92-445.7 615.8-447.46 617.7-.38.4-101.62-138.35-224.98-308.36zm405.26-59.06C970.62 632.17 1051 520.64 1051 520c0-.66-28.4-41.2-63.1-90.1L924.8 341l-233.14.05-233.16.04-63 88.6c-34.65 48.72-63 89.34-63 90.27 0 .93 56.92 81.14 126.5 178.25 117.47 163.96 126.62 176.45 128.15 174.92.9-.9 79.14-105.37 173.85-232.14 94.7-126.77 172.54-230.86 172.95-231.3 1.1-1.2 50.34 67.1 49.66 68.9-.3.8-76.23 107.94-168.72 238.07C722.4 846.8 646.68 953.87 646.6 954.6c-.05.7 9.97 15.07 22.28 31.93 18.3 25.07 22.6 30.4 23.63 29.3.7-.73 81.65-112.33 179.88-248z"/>
</svg>
