<svg xmlns="http://www.w3.org/2000/svg" viewBox="0 0 1381 1381">
  <path d="M612.5 1032.4c-42.35-56.88-77.15-103.86-77.33-104.4-.2-.6-5.05-1-11.64-1h-11.3L415.6 798.5 318.98 670l4.93-9.8 4.94-9.84-9.07-11.93c-4.98-6.56-27.93-36.98-51-67.6l-41.94-55.65 83.92-116.34 83.92-116.34H508l4.96-7.75 4.97-7.75h130.3c71.64 0 150.2.3 174.58.66l44.32.67 4.42 6.83 4.42 6.84 53.77.05 53.77.04 85.5 114.44c47.02 62.94 86.1 115.33 86.85 116.42 1.25 1.83-2.76 7.5-50.28 71.06l-51.64 69.08 5.58 8.08c3.07 4.45 5.44 8.5 5.28 8.98-.16.5-44.62 58.45-98.8 128.8L867.5 926.88l-10 .08-10 .1-78 103.12c-42.9 56.72-78.45 103.7-79 104.37-.73.92-21.6-26.42-78-102.15zM873.52 773c99.8-133.38 181.47-242.95 181.5-243.5.02-.55-29.1-40.02-64.74-87.72l-64.78-86.72-235.54-.03L454.4 355l-64.7 86.5c-35.58 47.57-64.8 86.9-64.95 87.4-.14.5 34.8 47.77 77.6 105.04l77.88 104.12 55.14-73.78C565.7 623.7 625.4 543.82 668 486.76l77.5-103.74h55.87c52.72-.02 55.84.08 55.4 1.73-.25.96-73 96.6-161.68 212.56C606.4 713.26 534 808.68 534.2 809.37c.57 2.3 51.28 68.56 51.93 67.85.35-.38 78.6-103.75 173.9-229.7 95.3-125.95 173.58-229.37 174-229.83.64-.73 54.15 71.18 54.2 72.84 0 .38-77.27 105.23-171.72 233-94.43 127.8-171.64 232.72-171.55 233.17.1.46 10.15 14.63 22.36 31.5 19.44 26.83 22.36 30.44 23.5 29 .7-.92 82.93-110.8 182.72-244.17z"/>
</svg>
