<svg xmlns="http://www.w3.org/2000/svg" viewBox="0 0 1381 1381">
  <path d="M616 1035l-75.36-99-21.57-.05-21.57-.04-89-119c-48.95-65.47-89.4-119.88-89.9-120.93-.7-1.5 1-4.77 8-15.6 4.9-7.56 9.03-14.04 9.2-14.42.25-.63-17.15-23.9-87.9-117.6l-25.77-34.12 80.73-106.87L383.6 300.5l62.13-.5 62.14-.5L518.7 284l10.85-15.5 38.48-.73c21.16-.4 94.02-.63 161.92-.5l123.46.23 11.55 16.22 11.55 16.22 62.4.28 62.4.28 80.33 106.5c44.18 58.58 80.22 106.83 80.1 107.23-.13.4-24.98 33.9-55.23 74.4-30.25 40.52-55.13 74.22-55.3 74.9-.16.66 3.13 7.45 7.32 15.1 4.48 8.17 7.45 14.7 7.23 15.9-.2 1.1-39.5 55.9-87.3 121.74L891.5 936h-47.18l-75.77 99c-41.68 54.45-76.1 99-76.5 99-.4 0-34.64-44.55-76.08-99zm257.66-253.06c97.8-130.93 177.84-238.52 177.84-239.1 0-.57-28.55-39.36-63.45-86.2L924.6 371.5H464.45l-63.68 85.4-63.68 85.43 2.18 3.08c1.2 1.7 11.42 15.54 22.73 30.75l20.56 27.65 23.84-30.9 23.85-30.9H482.87l51.82-71.5 51.8-71.5h29.37c23.35 0 29.17.26 28.4 1.25-9.9 12.7-205.6 277.53-205.6 278.24 0 .82 45.82 64.25 48.25 66.78.4.43 58.3-77.08 128.6-172.25L743.4 400h57.3c31.5 0 57.3.17 57.3.38 0 .2-71.27 93.68-158.38 207.7L541.25 815.43l25.56 33.83c24.3 32.14 25.65 33.74 27.26 32.04.94-1 77.42-101.7 169.96-223.8 92.55-122.1 168.8-222.6 169.48-223.32.98-1.06 6.3 5.66 27.32 34.4 15.77 21.6 25.82 36.22 25.4 36.96-.4.67-46.17 62.68-101.72 137.8l-101 136.6-26.52.03-26.52.03-53.08 71.75c-29.2 39.46-53.66 72.67-54.34 73.8-1.15 1.84 1.96 6.15 35.07 48.66 20 25.66 36.65 46.46 37.03 46.22.38-.24 80.72-107.55 178.53-238.48z"/>
</svg>
