<svg xmlns="http://www.w3.org/2000/svg" viewBox="0 0 1381 1381">
  <path d="M692 207.04c-.28 0-35.97 53.74-79.32 119.4-78.13 118.36-78.84 119.4-81.5 118.53-1.47-.5-35.73-10.17-76.12-21.52-66.1-18.58-73.56-20.48-74.63-19.02-.66.9-35 67.27-76.3 147.5L229 697.8l75.57 143.35c41.56 78.84 75.97 143.76 76.47 144.27.66.68 105.06-25.56 146.96-36.94 1.06-.3 25.44 35.9 82.5 122.42 44.55 67.56 81.25 122.7 81.54 122.53.3-.16 36.92-55.17 81.36-122.25l80.82-121.95 74.6 18.84c41.03 10.36 74.7 18.74 74.83 18.6.12-.1 34.3-64.97 75.94-144.13 67.56-128.45 75.6-144.2 74.72-146.48-1.25-3.3-149.23-286.3-150.26-287.37-.43-.45-35.47 7.45-77.88 17.56l-77.1 18.4-78.3-118.83c-43.05-65.35-78.5-118.8-78.78-118.8zm0 287.04c.4.02 128.96 194.82 134.88 204.36 1.3 2.1-2 7.35-58.56 92.65-32.97 49.7-63.75 96.1-68.4 103.05l-8.46 12.65-67.67-102.65c-37.23-56.46-67.75-103.1-67.84-103.65-.16-1.07 135.2-206.45 136.04-206.42z"/>
</svg>
