<svg xmlns="http://www.w3.org/2000/svg" viewBox="0 0 1381 1381">
  <path d="M623.46 1094.3c-36.28-54.76-66.24-100-66.58-100.54-.38-.58-45.8 8.65-113.92 23.14-62.3 13.26-113.4 24-113.52 23.85-.13-.14 26.28-34.45 58.7-76.25 58.87-75.95 58.9-76 55.64-76.24-1.8-.14-37.48 1.5-79.28 3.6-41.8 2.13-76.04 3.8-76.1 3.75-.04-.05-21.83-41.47-48.42-92.04l-48.33-91.93 15.65-30.57c8.6-16.8 30.43-59.36 48.5-94.55l32.86-63.98 3.42.25 85.9 6.78c45.37 3.6 83.34 6.4 84.38 6.24 1.48-.24-12.9-19.65-65.78-88.78-37.22-48.67-67.26-88.63-66.76-88.8.5-.16 52.3 10.12 115.1 22.86s114.32 23 114.5 22.8c.2-.2 29.5-44.48 65.1-98.38l64.93-98.22c.1-.13 30.5 44.3 67.55 98.75 37.06 54.43 67.65 98.97 67.97 98.97.33 0 50.94-10.58 112.47-23.5 61.53-12.94 112.04-23.35 112.24-23.15.2.2-29.8 41-66.65 90.68-36.87 49.66-66.92 90.4-66.78 90.55.14.13 40.52-3.7 89.75-8.5l89.5-8.72 2.88 5.57c32.78 63.36 93.62 182.48 93.62 183.3 0 .78-90.68 188.7-91.4 189.37-.05.06-37.2-3.86-82.56-8.7-45.36-4.85-82.6-8.67-82.78-8.5-.18.2 25.75 35.6 57.6 78.7 31.87 43.13 57.85 78.5 57.74 78.62-.1.12-51.23-10.57-113.6-23.75-62.37-13.2-113.7-23.63-114.08-23.22-.38.4-30.57 45.6-67.1 100.44l-66.4 99.67-65.96-99.57zm134.18-280.05c37.18-55.96 67.8-102.25 68.04-102.86.37-.97-131.8-202.67-135.12-206.2-.97-1.02-13.7 17.65-63.08 92.5-34.03 51.6-64.73 98.12-68.23 103.4l-6.36 9.6 68.17 102.66C658.57 869.8 689.42 916 689.64 916c.22 0 30.82-45.8 68-101.75z"/>
</svg>
