<?xml version="1.0" encoding="UTF-8" standalone="no"?>
<svg
   xmlns:dc="http://purl.org/dc/elements/1.1/"
   xmlns:cc="http://creativecommons.org/ns#"
   xmlns:rdf="http://www.w3.org/1999/02/22-rdf-syntax-ns#"
   xmlns:svg="http://www.w3.org/2000/svg"
   xmlns="http://www.w3.org/2000/svg"
   version="1.1"
   id="svg19387"
   viewBox="0 0 240 240"
   height="240"
   width="240">
  <defs
     id="defs19389" />
  <metadata
     id="metadata19392">
    <rdf:RDF>
      <cc:Work
         rdf:about="">
        <dc:format>image/svg+xml</dc:format>
        <dc:type
           rdf:resource="http://purl.org/dc/dcmitype/StillImage" />
        <dc:title></dc:title>
      </cc:Work>
    </rdf:RDF>
  </metadata>
  <g
     transform="translate(0,-812.36216)"
     id="layer1">
    <path
       id="path4449"
       d="m 119.25,830.71567 -27.578119,41.01172 -45.96094,-9.54688 27.92968,36.76953 -22.27343,33.94141 22.27343,32.52731 -27.92968,37.12314 45.96094,-9.54694 27.931639,41.01374 27.57617,-40.66024 45.96291,9.19344 -27.5781,-37.12314 21.9199,-32.88083 -21.5664,-32.52734 27.2246,-37.47656 -46.31643,9.19336 L 119.25,830.71567 Z m 0.70703,60.10351 28.63672,44.19336 -28.2832,42.07422 -29.345709,-42.07422 28.992189,-44.19336 z m -82.644529,4.82227 -19.25,38.875 19.375,38.25001 29.5,-2.625 3.75,-4.625 -23,-32.75001 22.5,-33.625 -32.875,-3.5 z m 165.124999,0.125 -33.875,3.25 22.25,33.625 -22.25,33.12501 2.75,4.5 31.5,3 19.125,-38.87501 -19.5,-38.625 z"
       style="display:inline;fill:#5c3566;fill-opacity:1;fill-rule:evenodd;stroke:none;stroke-width:1px;stroke-linecap:butt;stroke-linejoin:miter;stroke-opacity:1" />
  </g>
</svg>
