<?xml version="1.0" encoding="UTF-8" standalone="no"?>
<svg
   xmlns:dc="http://purl.org/dc/elements/1.1/"
   xmlns:cc="http://creativecommons.org/ns#"
   xmlns:rdf="http://www.w3.org/1999/02/22-rdf-syntax-ns#"
   xmlns:svg="http://www.w3.org/2000/svg"
   xmlns="http://www.w3.org/2000/svg"
   version="1.1"
   id="svg19969"
   viewBox="0 0 240 240"
   height="240"
   width="240">
  <defs
     id="defs19971" />
  <metadata
     id="metadata19974">
    <rdf:RDF>
      <cc:Work
         rdf:about="">
        <dc:format>image/svg+xml</dc:format>
        <dc:type
           rdf:resource="http://purl.org/dc/dcmitype/StillImage" />
        <dc:title></dc:title>
      </cc:Work>
    </rdf:RDF>
  </metadata>
  <g
     transform="translate(0,-812.36216)"
     id="layer1">
    <path
       id="path5562"
       d="M 120.62305,835.71468 87.580049,886.0389 C 63.70795,883.63407 39.08125,879.71071 8.2168495,855.59163 l -0.9747,41.13867 23.0801005,22.14258 10.9395,40.01563 30.125,15.06054 10.0019,29.03715 24.6465,4.3496 14.4297,21.6738 14.7383,-22.1328 23.332,-4.7891 10.4902,-29.03708 30.6114,-14.23828 10.1523,-39.07813 22.9688,-22.92969 -0.9004,-41.21289 c -29.0946,22.13183 -52.0686,26.92664 -77.8672,30.27734 l -33.3672,-50.1543 z m -0.043,31.30273 17.5352,25.92774 24.8027,-0.11133 -12.2519,18.76953 14.2011,21.35742 -14.0507,21.13086 11.9511,17.87305 -24.166,0.14844 -18.0215,26.90234 -17.9472,-26.86328 -24.128901,-0.30078 11.9531,-18.02149 -13.9766,-20.90625 14.3516,-21.28125 -12.3652,-18.73437 24.802701,0.375 17.3105,-26.26563 z m 0.1504,22.81836 -28.1758,43.125 28.0254,41.92578 28.0996,-41.92578 -27.9492,-43.125 z"
       style="display:inline;fill:#5c3566;fill-opacity:1;fill-rule:evenodd;stroke:none;stroke-width:4;stroke-linecap:butt;stroke-linejoin:miter;stroke-miterlimit:4;stroke-dasharray:none;stroke-opacity:1" />
  </g>
</svg>
