<svg xmlns="http://www.w3.org/2000/svg" viewBox="0 0 1381 1381">
  <path d="M658.4 1129.55c-39.94-59.6-35.6-54.64-48.9-56.06-10-1.07-102.9-16.5-104.43-17.34-.78-.43-12.53-32.48-26.12-71.22l-24.7-70.44-16.87-7.1c-30.43-12.8-73.1-34.38-115.96-58.67l-14.08-7.97-25.8-93.63c-14.2-51.5-26.44-95.73-27.2-98.3-1.1-3.72-2.36-5.37-6.28-8.2-6.64-4.76-44.03-36.92-57.22-49.2-15.8-14.72-40.95-42-46.98-51l-2.63-3.93 2.35-91c1.3-50.05 2.47-94.93 2.63-99.74l.3-8.74 7 5.6c50.37 40.32 116.37 79.22 166.5 98.14 25.36 9.57 39.2 13.98 69.5 22.14 29.98 8.07 49.7 11.54 105.87 18.63 30.82 3.9 37.08 4.44 38.16 3.3.72-.72 36.92-55.56 80.46-121.83 43.53-66.28 79.55-120.9 80.02-121.4.5-.5 35.74 51.58 82.53 122 44.92 67.6 81.8 123.05 81.98 123.24.54.58 55.2-9.64 93.47-17.5 66.96-13.7 96.06-22.83 140.5-44 35.63-17 97.84-54.17 131.18-78.4l12.17-8.84.54 6.2c.28 3.4 1.45 42.42 2.58 86.7 1.12 44.27 2.32 86.36 2.66 93.52l.6 13-8.83 10c-27.66 31.26-47.45 51.04-84.82 84.75l-19.92 17.97-11.78 46.63c-28.37 112.3-36.6 143.2-38.5 144.66-3.43 2.6-61.6 31.2-79.88 39.28-9.9 4.38-28.8 12.55-42 18.16-13.2 5.6-24.5 10.72-25.14 11.37-.62.64-12.5 32.44-26.38 70.67-13.9 38.22-25.53 69.8-25.86 70.17-.74.8-46.37 11.66-64.12 15.25-6.87 1.4-20.6 3.9-30.5 5.58-9.88 1.67-18.48 3.6-19.1 4.27-.62.68-16.3 24.4-34.86 52.73-18.56 28.32-34.3 52.1-35 52.82-1 1.06-8-8.77-37.14-52.27zM840.6 905c32.12 0 58.4-.23 58.4-.5 0-.3-12.82-19.9-28.5-43.6-15.68-23.67-28.5-43.47-28.5-43.98 0-.5 15.23-23.77 33.85-51.7l33.84-50.74-34.42-51.5c-18.93-28.3-34.6-51.77-34.84-52.12-.23-.35 12.8-20.82 28.96-45.5l29.37-44.86-59.4-.26-59.38-.26-42.25-63.46c-23.24-34.9-42.5-63.48-42.82-63.5-.32 0-19.44 29.02-42.5 64.52l-41.93 64.54-10.5-.53c-16.92-.84-110-1.8-110-1.14 0 .34 13.5 20.84 29.97 45.56l29.97 44.94-35.35 51.65-35.36 51.66 34.4 51.37 34.42 51.36-29.03 43.53C503.06 884.4 490 904.2 490 904.5c0 .27 19.73.5 43.84.5 24.1 0 50.65.3 58.97.65l15.14.66 42.2 63.1c23.2 34.7 42.85 63.9 43.7 64.87 1.4 1.64 4.85-3.27 44.95-63.75L782.2 905h58.4zm-214.48-88.34C588.66 760.83 558 714.86 558 714.5c0-1 136.26-208.5 136.9-208.5 1.1.03 135.6 207.42 135.5 208.96-.08 1.44-132.04 198.97-134.85 201.88-1.08 1.1-13.1-16.24-69.43-100.18z"/>
</svg>
