<svg xmlns="http://www.w3.org/2000/svg" viewBox="0 0 1381 1381">
  <path d="M653.84 1147.37c-20.54-30.62-37.6-56.05-37.9-56.52-.3-.46-28.17-5.48-61.92-11.14l-61.37-10.3-11.24-29.28c-6.17-16.1-11.5-29.54-11.8-29.86-.32-.3-46.82 9.62-103.34 22.08-56.52 12.46-103.78 22.77-105.03 22.9-2.05.24-3.24-1.88-12.05-21.26l-9.78-21.5L285.1 942c25.16-38.76 45.53-70.8 45.3-71.18-.25-.4-10.05-6.02-21.8-12.5l-21.33-11.82-12.12-42.5c-6.67-23.38-14.62-51.73-17.68-63-3.05-11.28-6.84-24.77-8.43-30-3.15-10.36-13.9-49.38-16.63-60.35l-1.7-6.85-9.6-7.6c-41.35-32.8-78.84-67.85-101.05-94.45L111.9 532l2.17-103.75c1.2-57.06 2.33-103.92 2.5-104.13.2-.2 8.8 5.9 19.14 13.57 32.3 23.96 77.36 54 111.8 74.5 26.24 15.62 62.97 33.78 86 42.5 9.7 3.68 41.56 12.76 42.08 12 .07-.1 36.73-66 81.46-146.43s81.42-146.13 81.54-146c.5.55 4.86 31.8 11.33 81.23C563.3 357.7 568.44 395 569.13 395c.66 0 52.27-78.2 98.84-149.78 12.27-18.86 22.4-34.16 22.53-34l61 90.78c33.44 49.77 60.95 90.7 61.15 90.92 1.5 1.78 2.55-4.85 11.27-71.92 3.82-29.43 9.78-74.92 13.24-101.1l6.3-47.6 11.34 20.6c6.24 11.33 15.54 28.03 20.65 37.1 5.12 9.07 21.13 37.88 35.58 64 14.44 26.13 31.3 56.5 37.5 67.5 6.16 11 21.45 38.45 33.97 61 12.52 22.55 23.1 41.36 23.5 41.8 1.57 1.76 34.7-7.6 56-15.8 27.37-10.57 49-21.07 82.62-40.1 30.92-17.5 75.4-48.08 106.88-73.43l14-11.28.27 8.4c.15 4.62 1.36 51.58 2.7 104.35l2.42 95.94-6.37 7.05c-32.8 36.36-58.04 61.38-95.63 94.77l-16.57 14.7-7.26 28.3c-4 15.55-9.87 37.95-13.07 49.78-3.2 11.82-10.17 38.38-15.5 59-5.3 20.63-11.02 42.8-12.7 49.27l-3.07 11.77-24.78 12.54-24.78 12.55 16.26 24.7c8.95 13.56 29.6 44.87 45.92 69.56 16.3 24.67 29.65 45.2 29.65 45.6 0 .75-18.87 43.2-19.46 43.8-.38.38-148.25-32.4-184.3-40.87-13.9-3.26-25.65-5.93-26.13-5.93-.46 0-5.94 12.6-12.17 28-10.7 26.44-11.5 28.03-14.37 28.95-5.2 1.66-45.3 11.02-60.56 14.13-14.12 2.88-39.73 7.12-51.18 8.46l-5.7.67-37.23 54.66c-20.5 30.05-38.04 55.66-39 56.9-1.7 2.26-1.98 1.9-39.06-53.4zm91.66-158.63c29.7-41.92 55.24-77.5 56.76-79.06 2.42-2.5 22-30.04 121.2-170.42l22.77-32.24 56.37-.26 56.38-.26-68.74-95.23-68.74-95.23-61.15-.02-61.15-.02-53.8-78c-29.57-42.9-54.1-78-54.48-78-.38 0-9.12 12.5-19.42 27.75-10.3 15.26-34.08 50.35-52.86 77.97l-34.14 50.22-62.06.03-62.06.03-68.47 95.25-68.46 95.25 56.53.26 56.53.26 126.97 179c69.84 98.44 127.2 178.97 127.5 178.96.3 0 24.83-34.3 54.53-76.24zm-145.33-144.2C550.57 772.23 510 712.6 510 712.03c0-1.3 179.7-263.43 180.85-263.82.93-.3 181.15 262.1 181.15 263.75C872 713.34 692 976 691.05 976c-.4 0-41.28-59.16-90.88-131.47zm117.35-92.25c14.3-21.3 25.95-39.42 25.92-40.3-.06-1.72-51.25-77-52.37-77-.38 0-12.7 17.3-27.4 38.45L637 711.9l26.66 39.55C678.33 773.2 690.6 791 690.93 791c.33 0 12.3-17.42 26.6-38.7z"/>
</svg>
