<?xml version="1.0" encoding="UTF-8" standalone="no"?>
<svg
   xmlns:dc="http://purl.org/dc/elements/1.1/"
   xmlns:cc="http://creativecommons.org/ns#"
   xmlns:rdf="http://www.w3.org/1999/02/22-rdf-syntax-ns#"
   xmlns:svg="http://www.w3.org/2000/svg"
   xmlns="http://www.w3.org/2000/svg"
   width="240"
   height="240"
   viewBox="0 0 239.99999 239.99999"
   id="svg6436"
   version="1.1">
  <defs
     id="defs6438" />
  <metadata
     id="metadata6441">
    <rdf:RDF>
      <cc:Work
         rdf:about="">
        <dc:format>image/svg+xml</dc:format>
        <dc:type
           rdf:resource="http://purl.org/dc/dcmitype/StillImage" />
        <dc:title></dc:title>
      </cc:Work>
    </rdf:RDF>
  </metadata>
  <g
     id="layer1"
     transform="translate(-249.36066,-378.64025)">
    <path
       style="display:inline;opacity:1;fill:#5c3566;fill-opacity:1;fill-rule:evenodd;stroke:none;stroke-width:4;stroke-linecap:butt;stroke-linejoin:miter;stroke-miterlimit:4;stroke-dasharray:none;stroke-opacity:1"
       d="m 338.79218,395.21934 -32.5293,58.85938 c -18.30835,-4.85253 -33.56617,-13.39227 -52.21875,-28.33594 l -1.03711,41.91406 23.75782,22.15039 11.51757,40.92774 9.16797,4.65625 -0.0332,0.31445 -18.56055,27.87695 3.59571,9.09766 42.35546,-9.45508 4.66211,12.06836 24.53516,4.09961 0.17578,0 15.23242,22.66797 15.51368,-22.77148 0.0469,0 24.22652,-4.98047 4.5488,-11.16602 0.018,0 42.4024,9.53711 3.8886,-8.87695 -18.3398,-28.16992 -0.01,-0.0918 9.8203,-4.91016 10.4278,-39.83984 23.7578,-23.39453 -1.0371,-41.70703 c -20.8408,17.32465 -35.7085,24.44715 -52.1133,28.36132 l -0.016,-0.14257 -32.57227,-58.39453 -5.8691,44.38281 -0.2129,0.002 -24.63675,-36.87695 -24.45312,37.36328 -6.01172,-45.16602 z m 30.62109,37.57813 21.6855,31.38086 24.5762,0 27.6563,38.36914 -28.3907,40.49414 -22.8886,0 -22.66799,31.61914 -22.52149,-31.69141 -22.88867,0.0723 -28.39063,-40.64063 27.40235,-38.32421 24.95117,0.10351 21.47656,-31.38281 z m -0.41601,10.73828 -40.66797,58.92773 40.2539,60.17383 43.57418,-59.13672 -43.16011,-59.96484 z m 0.41601,31.79687 19.7637,28.32422 -19.7637,28.63477 -19.66015,-28.94531 19.66015,-28.01368 z"
       id="path6191" />
  </g>
</svg>
