<?xml version="1.0" encoding="UTF-8" standalone="no"?>
<svg
   xmlns:dc="http://purl.org/dc/elements/1.1/"
   xmlns:cc="http://creativecommons.org/ns#"
   xmlns:rdf="http://www.w3.org/1999/02/22-rdf-syntax-ns#"
   xmlns:svg="http://www.w3.org/2000/svg"
   xmlns="http://www.w3.org/2000/svg"
   version="1.1"
   id="svg7619"
   viewBox="0 0 240 240"
   height="67.73333mm"
   width="67.73333mm">
  <defs
     id="defs7621" />
  <metadata
     id="metadata7624">
    <rdf:RDF>
      <cc:Work
         rdf:about="">
        <dc:format>image/svg+xml</dc:format>
        <dc:type
           rdf:resource="http://purl.org/dc/dcmitype/StillImage" />
        <dc:title></dc:title>
      </cc:Work>
    </rdf:RDF>
  </metadata>
  <g
     transform="translate(0,-812.36215)"
     id="layer1">
    <path
       id="path4290"
       d="m 119.99999,840.43829 a 91.923882,91.923882 0 0 0 -91.923829,91.9239 91.923882,91.923882 0 0 0 91.923829,91.92381 91.923882,91.923882 0 0 0 91.92385,-91.92381 91.923882,91.923882 0 0 0 -91.92385,-91.9239 z m 0,18.3848 a 73.539101,73.539101 0 0 1 73.53905,73.5391 73.539101,73.539101 0 0 1 -43.52343,67.0332 c 16.84803,-28.1467 35.68813,-72.2816 12.58593,-119.0059 l -13.61132,-8.1308 c 18.27512,51.5558 3.38017,85.7623 -44.1289,132.01361 A 73.539101,73.539101 0 0 1 76.566391,991.60629 c 36.297149,-19.3345 83.365649,-62.2441 60.580079,-123.5898 l -8.83789,-1.9453 c 9.15997,43.9328 -10.97682,84.2211 -73.777339,99.7695 a 73.539101,73.539101 0 0 1 -8.07032,-33.4785 73.539101,73.539101 0 0 1 73.539069,-73.5391 z"
       style="display:inline;opacity:1;fill:#8f5902;fill-opacity:1;stroke:none;stroke-width:10;stroke-linecap:butt;stroke-linejoin:miter;stroke-miterlimit:4;stroke-dasharray:none;stroke-dashoffset:10;stroke-opacity:1" />
  </g>
</svg>
