<svg xmlns="http://www.w3.org/2000/svg" viewBox="0 0 1381 1381">
  <path d="M662 1138.37c-54.4-4.82-97.76-15.23-141.9-34.07-96.55-41.2-176.1-117.2-221.7-211.8-58.7-121.85-57.7-265.08 2.76-384.97 9.94-19.7 14.58-27.68 27.43-47.03 84.6-127.4 231.2-201.3 383.85-193.48 61.42 3.15 115.36 16.84 169.26 42.98 70.57 34.2 129.7 85.75 172.7 150.5 29.17 43.9 48.2 86.75 60.6 136.5 37.66 150.73-8.08 310.96-119.6 419-70.07 67.9-156.1 108.5-255.4 120.57-12.86 1.56-66.7 2.8-78 1.8zm-36.18-108.62c16.62-14.7 49.08-46.7 65.7-64.75 87.63-95.2 140.5-183.73 160.35-268.5 13.5-57.65 15.05-118.12 4.58-178.48-5.86-33.75-17.2-72.68-28.5-97.77-1.56-3.44-2.38-6.25-1.83-6.25 1.68 0 31.77 15.5 41.88 21.58 24.34 14.62 27.64 19.1 41.2 55.92 16.65 45.18 28.4 93.73 34.36 142 2.2 17.82 3.04 63.6 1.5 81.75-6.03 70.63-32.8 156.37-76.56 245.25-9.6 19.5-22.2 43.34-28.97 54.88l-2.87 4.87 2.42-1.3c6.38-3.4 36.74-22.15 47.42-29.28 24.15-16.1 40.07-29.07 58.5-47.6 55.68-55.94 86.18-126.05 94.93-218.22 6.5-68.3-5.24-128.7-36.2-186.35-49.94-93.03-144.1-160.06-251.23-178.85-29.62-5.2-71.05-6.55-99-3.23-56.1 6.66-105.1 24.1-152 54.1-20.05 12.83-37.2 26.98-58 47.9-39.55 39.73-66.17 82.6-83.57 134.58-12.66 37.8-17.9 70.57-17.92 112 0 38.14 5.8 72.36 19.02 112.17 5.07 15.23 14.94 39.78 16.92 42.07 1.42 1.65 45.27-10.76 71.14-20.13 99.57-36.03 177.05-89.48 222.14-153.23 43.23-61.12 65.53-130.2 67.45-208.87.78-31.98-1.64-63.04-6.64-85.38-.6-2.7-.97-5-.8-5.16.34-.35 42.67 9.1 43.18 9.64.78.82 5.7 17.36 8.67 29.17 12.85 50.86 18.74 106.68 16.03 151.84-3.45 57.38-14.8 99.22-39.86 146.9-44.62 84.9-87.12 136.76-151.74 185.13-14.56 10.9-52.85 37.93-68.65 48.48-14.05 9.38-36.53 21.36-47.65 25.4-3.46 1.27-5.94 2.63-5.5 3.04 2.06 1.9 32.57 19.17 47.82 27.07 25.86 13.4 48.57 22.3 66.98 26.24 12.8 2.74 12.34 2.9 25.32-8.6z"/>
</svg>
