<?xml version="1.0" encoding="UTF-8" standalone="no"?>
<svg
   xmlns:dc="http://purl.org/dc/elements/1.1/"
   xmlns:cc="http://creativecommons.org/ns#"
   xmlns:rdf="http://www.w3.org/1999/02/22-rdf-syntax-ns#"
   xmlns:svg="http://www.w3.org/2000/svg"
   xmlns="http://www.w3.org/2000/svg"
   width="240"
   height="240"
   viewBox="0 0 240 240"
   id="svg8201"
   version="1.1">
  <defs
     id="defs8203" />
  <metadata
     id="metadata8206">
    <rdf:RDF>
      <cc:Work
         rdf:about="">
        <dc:format>image/svg+xml</dc:format>
        <dc:type
           rdf:resource="http://purl.org/dc/dcmitype/StillImage" />
        <dc:title></dc:title>
      </cc:Work>
    </rdf:RDF>
  </metadata>
  <g
     id="layer1"
     transform="translate(0,-812.36216)">
    <path
       style="display:inline;opacity:1;fill:#8f5902;fill-opacity:1;stroke:none;stroke-width:10;stroke-linecap:butt;stroke-linejoin:miter;stroke-miterlimit:4;stroke-dasharray:none;stroke-dashoffset:10;stroke-opacity:1"
       d="m 119.99905,837.25671 a 95.105865,95.105865 0 0 0 -95.1055,95.1055 95.105865,95.105865 0 0 0 95.1055,95.10539 95.105865,95.105865 0 0 0 95.1074,-95.10539 95.105865,95.105865 0 0 0 -95.1074,-95.1055 z m 0,21.5664 a 74.069435,74.069435 0 0 1 74.0703,74.0703 74.069435,74.069435 0 0 1 -4.8574,26.1289 c -28.0486,-25.9799 -39.2185,-61.3294 -45.3477,-88.5312 l -11.4902,-3.5371 c 1.1055,47.5938 12.5718,80.3856 34.3594,123.3515 a 74.069435,74.069435 0 0 1 -24.4571,13.13869 c -11.534,-43.94099 -16.0987,-91.17849 -17.8574,-137.01949 l -9.5449,0.1758 c -1.1069,45.8482 -7.7452,105.6735 -18.373,136.46479 a 74.069435,74.069435 0 0 1 -23.1172,-12.68559 c 18.0411,-38.6902 32.5389,-73.4344 34.0644,-123.0722 l -12.0215,3.3594 c -7.9342,37.5123 -18.6504,62.5486 -44.9961,87.4609 a 74.069435,74.069435 0 0 1 -4.5,-25.2344 74.069435,74.069435 0 0 1 74.0684,-74.0703 z"
       id="path4315" />
  </g>
</svg>
