<svg xmlns="http://www.w3.org/2000/svg" viewBox="0 0 1381 1381">
  <path d="M539.5 1108.27c-29.6-11.37-45.6-18.75-64.58-29.78-33.74-19.6-60.82-40.4-88.5-67.97-67.97-67.7-111.95-153.5-126.35-246.53-5.2-33.57-5.8-75.24-1.54-105.5 1.5-10.64 4.08-25.18 5.1-28.73.43-1.53 2.37-1.75 17.13-2l16.64-.27 65.84-115.8 65.85-115.8-9.06-12.45c-4.97-6.84-9.04-12.84-9.04-13.34s5.44-5.1 12.08-10.25c69.55-53.83 139.58-82.48 223.67-91.5 19.63-2.1 67.08-2.4 85.25-.54 86.86 8.96 158.45 37.13 229.74 90.4l13.24 9.88-9 13.44c-4.93 7.38-8.98 13.8-8.98 14.25 0 .46 30.56 52.78 67.9 116.28l67.92 115.45 13.95.28 13.96.27 2.65 16.76c4.56 28.75 5.62 39.93 5.6 59.16-.05 99.92-36.5 198.06-103.75 279.36-9.83 11.88-34.97 37.5-47.73 48.63-37.57 32.78-84.53 60.3-128.17 75.1l-8.17 2.77-9.22-13.9-9.23-13.92H563.02l-9.25 13.97c-5.1 7.7-9.47 13.95-9.75 13.9-.27-.03-2.3-.76-4.5-1.6zM595.84 994c25.26-115.15 47.34-247.4 57.1-342 6.72-64.93 11.85-150.62 13.7-228.25l.67-28.75h50.56l.53 5.25c.28 2.9.76 19.65 1.05 37.25 1.02 60.28 5.52 135.88 12.07 202.5 8.57 87.15 25.9 197.9 48.1 307.5 7.15 35.2 15.07 71.13 16.04 72.75.78 1.28 2.18.9 15.7-4.38 17.56-6.86 40.92-18.12 55.62-26.82 11.07-6.55 31.12-20.8 32.57-23.13.34-.55-4.17-11.37-10.03-24.06-40.4-87.53-75.67-182.2-97.36-261.36-19.17-69.94-33.57-157.62-40.64-247.36-1.66-21.12-1.94-33.16-.77-33.1.4.02 11.76 3.07 25.22 6.77l24.47 6.74 7.15 28.48c23.62 94.13 51.67 168.62 85 225.67 29.2 49.96 74.13 108.03 109.14 141.03l7.67 7.22 3.8-16.72c12.1-53.56 14.32-69.27 14.22-100.73-.08-25.68-1.42-39.7-6-62.5-21.76-108.84-95.55-199.8-197.53-243.47-30.67-13.14-60.05-20.95-94.4-25.1-16.75-2-54.82-2.3-70.5-.55-67.15 7.57-123.35 30.3-175.5 70.97-13.5 10.53-42.4 39.13-53.2 52.65-42.5 53.25-67.8 116.38-73.4 183.1-1.58 19.06-.64 51.22 2 68.2 3.66 23.36 14.7 69.97 18.02 76 .92 1.68 25.53-23.45 40.43-41.3 46.94-56.2 88.46-125.27 114.84-191 16.63-41.45 37.2-111.88 46.36-158.7l1.7-8.72 27.12-9.04c14.92-4.97 27.46-9.04 27.87-9.04 1.98 0 .16 36.62-3.8 76.67-5.84 58.8-17.32 123.38-32.6 183.33-21.6 84.88-57.78 184.95-102.6 283.77-5.8 12.8-10.37 23.43-10.15 23.63 3.18 2.9 55.27 33.7 66.4 39.23 11.84 5.9 36.34 15.8 37.16 15.02.08-.08 2.87-12.53 6.18-27.65z"/>
</svg>
