<svg xmlns="http://www.w3.org/2000/svg" viewBox="0 0 1381 1381">
  <path d="M414.43 1048.68l-39.07-70.32 4.77-7.05 4.76-7.04-54.04-96.13L276.84 772h-10.8c-8.88 0-11.17-.3-12.8-1.75-1.1-.96-10.64-16.95-21.2-35.53l-19.22-33.78L313.6 526.22l120.23-208.47L453.3 284H939.5l41.25 71.56 41.26 71.55-4.47 5.82-4.47 5.8 53.7 93.63 53.7 93.63 8 .03 8 .04 21.42 37.17c11.78 20.46 21.4 37.68 21.4 38.3 0 .6-53.94 94.8-119.9 209.3L939.53 1119H453.5l-39.07-70.32zm395.42-258.93C888.85 655.15 953.8 545 954.15 545c.8 0 55.85 96.4 55.85 97.77 0 .52-50.4 88.84-111.98 196.27-61.6 107.43-111.8 195.5-111.6 195.73.23.22 23.8.07 52.38-.33l51.97-.73 95.06-164.63c52.3-90.56 95.37-165.42 95.73-166.36.46-1.18-28.7-52.6-95.1-167.7L890.7 369l-194.52.25-194.5.25-95.32 165c-55.04 95.3-95.2 165.86-95.08 167.04.12 1.12 36.86 65.4 81.64 142.87 65.48 113.25 81.64 140.55 82.54 139.33.6-.83 76.42-132.06 168.48-291.62L811.32 402h61.2l14.1 25.56 14.1 25.56L730.36 743.7C636.66 903.5 560 1034.44 560 1034.65c0 .2 23.9.25 53.1.1l53.1-.25 143.65-244.75z"/>
</svg>
