<svg xmlns="http://www.w3.org/2000/svg" viewBox="0 0 1381 1381">
  <path d="M415.82 1050.97l-38.68-68 9-15.72c8.53-14.87 8.94-15.85 7.68-18.4-.72-1.47-23.14-41.4-49.82-88.75l-48.5-86.07L275 774l-20.5-.03-20.2-35.36c-11.12-19.44-20.35-35.8-20.5-36.33-.17-.54 53.66-94.87 119.62-209.62L453.32 284h243.1l243.08.02 5.6 10.24c3.06 5.63 20.3 37.33 38.33 70.44l32.75 60.2-9.2 13.53-9.2 13.53 49.86 90.27 49.87 90.27 20.52.27 20.5.27 20.65 34.4 20.64 34.4-120.15 208.54-120.15 208.54-242.5.03-242.5.03-38.68-68zM804.65 785.5C879.7 657.35 941.42 552.2 941.8 551.83c.53-.5 44.32 75.9 46.03 80.3.2.48-7.7.9-17.5.9l-17.83.05-61.16 106.66L830.2 846.4l12.3 24.6 12.3 24.58-34.9 61.46-34.92 61.46 48.26.26c44.26.24 48.36.12 49.5-1.42 2.7-3.7 181.6-314.9 181.6-315.93 0-.6-41.12-72.26-91.38-159.25L881.6 384H511.37l-91.3 158.56c-72.57 126-91.15 158.95-90.45 160.45.48 1.04 9.2 16.3 19.37 33.92l18.5 32.04h78L506 663.4c33.28-58.08 60.65-106 60.82-106.46.25-.66-22.04-38.82-29.5-50.5-1.2-1.88 1.18-6 27.95-48.5l29.27-46.42 56.82-.26 56.8-.26-1.98 3.26c-1.1 1.8-62.82 108.32-137.15 236.72C468.63 824.4 434.1 884.86 434.7 886.12c2.05 4.3 49.86 86.85 50.3 86.86.28 0 72.95-126.43 161.5-280.95l161-280.97 27.5.22 27.5.22 14.22 26.37c12.36 22.9 14.08 26.65 13.1 28.5-.6 1.17-72.12 125.2-158.9 275.63-86.8 150.43-158.1 274.3-158.48 275.26-.63 1.67 1.9 1.75 47.54 1.5l48.2-.26 136.47-233z"/>
</svg>
