<svg xmlns="http://www.w3.org/2000/svg" viewBox="0 0 1381 1381">
  <path d="M307.96 1027.07c-49.2-59.35-89.46-108.38-89.46-108.93 0-.56 84.6-147.07 188-325.57l188-324.55 96.97.24 96.96.24L976.67 593c103.53 178.47 188.1 324.93 187.96 325.46-.15.52-40.5 49.45-89.7 108.72l-89.43 107.76-294.04.03-294.04.03-89.46-107.93zm392.04 35.9c115.22-1.08 218.5-2 229.5-2.02l20-.04 60-74.45c33-40.95 60.6-75.34 61.35-76.42 1.23-1.78-5.45-14.2-72-134-40.34-72.62-73.57-132-73.85-131.97-.27.03-52.84 61.68-116.8 137-63.97 75.3-116.62 136.9-117 136.88-.4-.04-51.55-61.26-113.7-136.05-62.15-74.8-113.53-136.45-114.17-137-.85-.74-21.42 34.47-76.68 131.3-41.53 72.76-75.66 132.83-75.83 133.5-.18.64 28.38 35.96 63.45 78.5l63.78 77.3 26.22-.26c14.43-.15 120.5-1.16 235.73-2.26zm82-396.2c48.13-58.9 87.5-107.7 87.5-108.43 0-.73-27.45-50.82-61-111.3l-61-109.97-56.06-.03-56.06-.04-61.33 110.42c-33.74 60.73-61.32 110.7-61.28 111.07.08.9 180.6 215.5 181.23 215.44.27-.04 39.88-48.26 88-107.17z"/>
</svg>
