<?xml version="1.0" encoding="UTF-8" standalone="no"?>
<svg
   xmlns:dc="http://purl.org/dc/elements/1.1/"
   xmlns:cc="http://creativecommons.org/ns#"
   xmlns:rdf="http://www.w3.org/1999/02/22-rdf-syntax-ns#"
   xmlns:svg="http://www.w3.org/2000/svg"
   xmlns="http://www.w3.org/2000/svg"
   version="1.1"
   id="svg14131"
   viewBox="0 0 240 240"
   height="240"
   width="240">
  <defs
     id="defs14133" />
  <metadata
     id="metadata14136">
    <rdf:RDF>
      <cc:Work
         rdf:about="">
        <dc:format>image/svg+xml</dc:format>
        <dc:type
           rdf:resource="http://purl.org/dc/dcmitype/StillImage" />
        <dc:title></dc:title>
      </cc:Work>
    </rdf:RDF>
  </metadata>
  <g
     transform="translate(0,-812.36216)"
     id="layer1">
    <path
       id="path4357"
       d="m 98.25584,839.20106 -77.42774,138.416 39.95118,47.90624 119.32422,0 39.0684,-48.08204 -77.60552,-138.2402 -43.31054,0 z m 10.07617,18.3847 23.51172,0 14.27344,24.7207 -26.29493,31.3184 -25.63281,-30.7598 14.14258,-25.2793 z m 46.31641,41.7207 10.67578,18.4922 -44.97071,54.8691 -44.72461,-54.9765 9.72266,-17.6778 34.29492,42.0723 35.00196,-42.7793 z m 19.79878,35.3535 23.3067,40.3692 -25.959,32.10934 -102.88281,0 -25.98633,-31.99604 23.22852,-40.2364 53.8457,66.04694 54.44722,-66.29304 z"
       style="display:inline;fill:#c4a000;fill-opacity:1;fill-rule:evenodd;stroke:none;stroke-width:1px;stroke-linecap:butt;stroke-linejoin:miter;stroke-opacity:1" />
  </g>
</svg>
