<svg xmlns="http://www.w3.org/2000/svg" viewBox="0 0 1381 1381">
  <path d="M310 1029.43c-50.12-63.02-90.98-115.15-90.8-115.85.16-.7 24.1-42.94 53.22-93.86l52.92-92.58 9.58-.7 9.58-.7 82.1-146.06 82.1-146.07-3.4-8.4-3.4-8.43 10.4-19.14c5.7-10.52 24.9-45.8 42.63-78.38L587.16 260l104.48.25 104.47.25 42.48 78.1 42.47 78.1-3.37 7.9-3.38 7.9L956.16 579l81.86 146.5 9 .58c4.94.33 9.18.8 9.43 1.04.4.4 97.06 167.97 104.76 181.6l2.96 5.22-91.33 115.02L981.5 1144H867.17l-6.9-7.5-6.92-7.5H530.5l-8.7 7.5-8.67 7.5H401.13L310 1029.4zm685.15-47.03l61.56-75.6-53.1-95.65-53.1-95.65-129.3 157c-71.13 86.35-129.55 156.92-129.84 156.8-.28-.1-57.23-69.84-126.53-155-69.3-85.13-127.17-156.02-128.58-157.5l-2.55-2.73-42.94 76.72c-23.6 42.18-47.87 85.55-53.9 96.38l-10.95 19.68 59.2 75.57 59.22 75.57H933.6l61.55-75.6zM800.5 756.07c57.1-68.44 103.8-124.9 103.8-125.5-.05-1.07-44.87-82.4-46.2-83.83-.4-.4-37.6 43.66-82.66 97.95-45.07 54.28-82.87 99.8-84 101.13l-2.07 2.44-80.9-100.06-80.93-100.05-5.4 9.18c-2.96 5.04-13.6 23.17-23.6 40.27l-18.25 31.1 105.48 129.03 105.5 129.03 2.7-3.13c1.47-1.72 49.4-59.12 106.52-127.56zM749.78 533.2l59-74.3-19.56-33.7-32.66-56.2-13.1-22.5-52.23-.26c-36.7-.18-52.23.06-52.23.82 0 .6-14.67 26.97-32.6 58.63-24.8 43.8-32.4 57.98-31.75 59.32 1.4 2.9 114.73 143.02 115.46 142.74.37-.14 27.23-33.7 59.68-74.56z"/>
</svg>
