<?xml version="1.0" encoding="UTF-8" standalone="no"?>
<svg
   xmlns:dc="http://purl.org/dc/elements/1.1/"
   xmlns:cc="http://creativecommons.org/ns#"
   xmlns:rdf="http://www.w3.org/1999/02/22-rdf-syntax-ns#"
   xmlns:svg="http://www.w3.org/2000/svg"
   xmlns="http://www.w3.org/2000/svg"
   version="1.1"
   id="svg14713"
   viewBox="0 0 240 240"
   height="240"
   width="240">
  <defs
     id="defs14715" />
  <metadata
     id="metadata14718">
    <rdf:RDF>
      <cc:Work
         rdf:about="">
        <dc:format>image/svg+xml</dc:format>
        <dc:type
           rdf:resource="http://purl.org/dc/dcmitype/StillImage" />
        <dc:title></dc:title>
      </cc:Work>
    </rdf:RDF>
  </metadata>
  <g
     transform="translate(0,-812.36216)"
     id="layer1">
    <path
       id="path4369"
       d="m 96.047848,836.99111 -78.666,140.5371 41.365201,50.20499 122.330101,0 41.541,-50.73629 -79.5488,-140.0058 -47.021502,0 z m 12.550802,21.5664 21.3887,0 7.5898,13.1425 -11.3008,13.5508 0,27.7539 21.0352,-24.75 9.7559,16.8985 -30.9688,37.373 0,27.2227 40.4824,-47.7285 9.8887,17.1269 -45.4219,54.9981 -22.4492,-0.1778 -45.078102,-54.623 9.5176,-16.4844 39.449202,47.5957 0,-27.7539 -30.228502,-37.4766 9.6132,-16.6523 20.791102,24.6074 0,-28.2832 -11.4903,-13.6133 7.4258,-12.7265 z m -54.447302,97.0761 40.6582,50.17779 -26.6933,0 -25.2793,-30.58209 11.3144,-19.5957 z m 131.168002,0.3282 10.9395,18.9472 -25.4356,31.60939 -26.5156,-0.1758 41.0117,-50.38079 z"
       style="display:inline;fill:#c4a000;fill-opacity:1;fill-rule:evenodd;stroke:none;stroke-width:1px;stroke-linecap:butt;stroke-linejoin:miter;stroke-opacity:1" />
  </g>
</svg>
