<svg xmlns="http://www.w3.org/2000/svg" viewBox="0 0 1381 1381">
  <path d="M312.36 1025.35c-52.17-64.7-94.77-117.98-94.65-118.38.18-.6 100.13-177.83 100.8-178.74.12-.15 8.7-.6 19.07-1l18.86-.73 78.25-142.87c64.37-117.53 78.08-143.2 77.26-144.75-.56-1.03-4.6-7.35-8.97-14.05-7.25-11.08-7.85-12.37-6.63-14.26.74-1.14 20.8-35.48 44.6-76.32L584.2 260l107.65.04 107.65.05 43.5 75.6c23.93 41.6 43.64 76.22 43.82 76.96.18.73-3.73 7.17-8.7 14.3l-9 13 78.27 143.27 78.26 143.27 18.95.27 18.96.27 50.47 90.02c27.76 49.52 50.33 90.34 50.16 90.73-.2.38-42.7 53.46-94.5 117.95L975.5 1143l-48.5-.02-48.5-.02-13.5-15.98-13.48-15.98H531.14l-13.7 16-13.7 16h-96.52l-94.86-117.65zm253.96 8.4c-75.8-95.4-177.7-221.76-178.28-221.1-.43.46-11.9 19.67-25.5 42.68l-24.7 41.83 3.84 4.88c2.1 2.68 27.9 35.02 57.32 71.87l53.5 67 59.8.05 59.8.05-5.78-7.25zM986.78 970c31.52-38.77 57.8-71.48 58.4-72.68.95-1.92-1.67-6.63-22.25-40-12.83-20.8-24.54-39.76-26.04-42.12l-2.72-4.3-93.84 114.24c-51.6 62.84-94 114.6-94.18 115.06-.18.45 27.5.7 61.5.56l61.8-.26L986.8 970zM744.6 984.6c.15-.16 202.55-252.97 203.46-254.12.45-.58-7.36-15.82-18.2-35.5-10.45-18.96-19.57-35.55-20.27-36.86-1.24-2.28-5 2.08-94.7 109.4-51.37 61.46-93.5 111.13-93.6 110.37-.1-.78-.36-29.88-.58-64.7l-.4-63.28 67.97-83.2c37.38-45.78 69.67-85.27 71.76-87.77l3.8-4.55-22.3-36.23c-12.25-19.92-22.53-36.47-22.83-36.77-.3-.3-22.2 25.36-48.7 57.03C743.57 590.1 721.7 616 721.46 616s-.45-29.38-.45-65.3v-65.27l27-33.58c14.85-18.47 27-34.15 27-34.85 0-.7-7.72-14.26-17.17-30.13L740.67 358l-52.1.02-52.07.03-14.9 29.3c-10.72 21.1-14.63 29.74-14 30.84.5.82 12.8 16.37 27.35 34.54l26.45 33.04-.3 64.86c-.15 35.67-.35 64.9-.44 64.97-.1.07-22.84-25.72-50.55-57.3-27.7-31.58-50.72-57.05-51.13-56.6-.4.44-9.8 16.87-20.9 36.5l-20.14 35.73 71.72 87.28 71.73 87.3-.28 65c-.15 35.75-.38 65.1-.5 65.23-.13.13-42.05-49.7-93.16-110.75C516.34 706.94 474.3 657 474 657.03c-.77.05-40.42 71.63-40.2 72.6.1.48 46.1 58.35 102.24 128.6L638.1 985.97l53.2-.62c29.26-.35 53.24-.68 53.3-.74z"/>
</svg>
